
        <svg xmlns="http://www.w3.org/2000/svg" xmlns:xlink="http://www.w3.org/1999/xlink" version="1.1" width="3176.470588235294" 
        height="2933.3392069797806" viewBox="0 0 3176.470588235294 2933.3392069797806">
			
			<g transform="scale(8.823529411764707) translate(10, 10)">
				<defs id="SvgjsDefs52063"><linearGradient id="SvgjsLinearGradient52072"><stop id="SvgjsStop52073" stop-color="#8f5e25" offset="0"></stop><stop id="SvgjsStop52074" stop-color="#fbf4a1" offset="0.5"></stop><stop id="SvgjsStop52075" stop-color="#8f5e25" offset="1"></stop></linearGradient><linearGradient id="SvgjsLinearGradient52076"><stop id="SvgjsStop52077" stop-color="#51504f" offset="0"></stop><stop id="SvgjsStop52078" stop-color="#939598" offset="0.5"></stop><stop id="SvgjsStop52079" stop-color="#51504f" offset="1"></stop></linearGradient><linearGradient id="SvgjsLinearGradient52080"><stop id="SvgjsStop52081" stop-color="#8f5e25" offset="0"></stop><stop id="SvgjsStop52082" stop-color="#fbf4a1" offset="0.5"></stop><stop id="SvgjsStop52083" stop-color="#8f5e25" offset="1"></stop></linearGradient><linearGradient id="SvgjsLinearGradient52084"><stop id="SvgjsStop52085" stop-color="#8f5e25" offset="0"></stop><stop id="SvgjsStop52086" stop-color="#fbf4a1" offset="0.5"></stop><stop id="SvgjsStop52087" stop-color="#8f5e25" offset="1"></stop></linearGradient></defs><g id="SvgjsG52064" featureKey="symbolGroupContainer" transform="matrix(4.15625,0,0,4.15625,66,0)" fill="url(#SvgjsLinearGradient52072)"><circle cx="25" cy="25" r="25"></circle></g><g id="SvgjsG52065" featureKey="symbolFeature-0" transform="matrix(1.5348043149537667,0,0,1.5348043149537667,92.64007087406208,28.290827575732898)" fill="url(#SvgjsLinearGradient52076)"><g xmlns="http://www.w3.org/2000/svg"><rect x="48.936" y="6.326" width="2.5" height="7.037"></rect><rect x="31.613" y="13.485" transform="matrix(0.5878 0.809 -0.809 0.5878 26.4029 -22.3477)" width="7.036" height="2.5"></rect><rect x="22.309" y="26.292" transform="matrix(0.9511 0.309 -0.309 0.9511 9.7742 -6.6327)" width="7.037" height="2.5"></rect><rect x="73.543" y="23.942" transform="matrix(0.3086 0.9512 -0.9512 0.3086 77.8319 -52.1557)" width="2.5" height="7.036"></rect><rect x="64.144" y="11.006" transform="matrix(0.8088 0.5881 -0.5881 0.8088 21.0429 -35.6783)" width="2.499" height="7.036"></rect><rect x="6.75" y="55.405" width="4.462" height="2.5"></rect><rect x="88.943" y="55.405" width="4.463" height="2.5"></rect><path d="M76.296,79.279c2.974-2.101,3.686-6.229,1.586-9.202c-2.101-2.974-6.229-3.684-9.202-1.586l-6.725,4.749l2.019-11.244   l2.193-4.091h20.202v-2.5H67.508l9.153-17.071c0.16-0.298,0.192-0.649,0.089-0.972c-0.104-0.323-0.333-0.589-0.637-0.74   l-4.979-2.462c-0.735-11.037-9.8-19.593-20.949-19.593c-11.116,0-20.157,8.506-20.94,19.496l-5.176,2.56   c-0.304,0.15-0.533,0.417-0.636,0.74c-0.104,0.322-0.071,0.673,0.089,0.972l9.153,17.071H13.787v2.5h20.229l2.193,4.091   l2.02,11.244l-6.725-4.749c-2.973-2.098-7.101-1.388-9.202,1.586c-2.1,2.974-1.389,7.102,1.585,9.202l0.611,0.432H6.75v2.5h21.289   l9.917,7.003H6.75v2.5h86.656v-2.5h-31.18l9.918-7.003h21.262v-2.5H75.685L76.296,79.279z M50.186,17.068   c9.322,0,16.999,6.787,18.313,15.79l-12.934-6.396c-1.196-4.387-4.35-6.209-4.72-6.41c-0.112-0.061-0.289-0.157-0.514-0.201   c-0.083-0.017-0.162-0.023-0.238-0.023h-0.002c-0.076,0-0.155,0.007-0.238,0.023c-0.225,0.044-0.401,0.141-0.514,0.201   c-0.37,0.201-3.523,2.022-4.72,6.41l-12.726,6.293C33.25,23.804,40.899,17.068,50.186,17.068z M46.248,28.445   c0.34-0.168,0.585-0.481,0.667-0.852c0.635-2.888,2.343-4.446,3.178-5.055c0.834,0.608,2.542,2.167,3.178,5.055   c0.081,0.371,0.326,0.684,0.667,0.852l19.911,9.847l-5.41,10.088l-2.744-1.549l3.395-6.101c0.326-0.587,0.131-1.327-0.443-1.676   L50.741,28.169c-0.399-0.243-0.899-0.243-1.299,0L31.539,39.055c-0.574,0.349-0.77,1.089-0.443,1.676l3.341,6.005l-2.743,1.548   l-5.357-9.992L46.248,28.445z M44.166,42.726c0-3.319,2.7-6.02,6.02-6.02s6.021,2.701,6.021,6.02c0,3.409-2.835,7.733-6.021,7.733   S44.166,46.135,44.166,42.726z M54.403,51.445c2.593-1.962,4.303-5.515,4.303-8.719c0-4.698-3.822-8.52-8.521-8.52   c-4.698,0-8.52,3.822-8.52,8.52c0,3.125,1.629,6.577,4.114,8.567v2.053l-4.014,1.421l-7.901-14.201L50.092,30.7l16.227,9.866   l-7.902,14.201l-4.013-1.421V51.445z M32.875,50.487l2.777-1.567l4.443,7.985c0.226,0.406,0.649,0.643,1.092,0.643   c0.139,0,0.28-0.023,0.417-0.071l5.843-2.068c0.5-0.177,0.833-0.649,0.833-1.179v-1.573c0.611,0.19,1.247,0.303,1.905,0.303   c0.591,0,1.165-0.085,1.718-0.24v1.511c0,0.529,0.334,1.002,0.833,1.179l5.842,2.068c0.571,0.199,1.212-0.037,1.51-0.571   l4.391-7.89l2.778,1.568l-5.58,10.406c-0.063,0.116-0.105,0.24-0.129,0.37l-2.407,13.41H41.043l-2.408-13.41   c-0.023-0.13-0.067-0.254-0.129-0.37L32.875,50.487z M42.292,89.214L25.33,77.236c-1.848-1.305-2.29-3.87-0.985-5.718   c1.305-1.846,3.87-2.289,5.718-0.984l9.214,6.507c0.051,0.035,0.108,0.054,0.162,0.081c0.039,0.02,0.073,0.042,0.114,0.058   c0.14,0.054,0.285,0.086,0.433,0.088c0.004,0,0.008,0.002,0.012,0.002h20.189c0.004,0,0.007-0.002,0.012-0.002   c0.148-0.002,0.294-0.034,0.435-0.088c0.04-0.016,0.074-0.038,0.112-0.057c0.055-0.027,0.111-0.046,0.162-0.082l9.214-6.507   c1.849-1.306,4.413-0.862,5.718,0.984c1.305,1.848,0.863,4.413-0.984,5.718L57.892,89.214H42.292z"></path></g></g><g id="SvgjsG52066" featureKey="nameFeature-0" transform="matrix(0.9542788766679999,0,0,0.9542788766679999,0.11451426606286472,216.58682550871913)" fill="url(#SvgjsLinearGradient52080)"><path d="M19.32 30.880000000000003 c-2.52 1.64 -3.76 2.12 -5.48 2.12 c-1.2 0 -2.32 -0.32 -3.4 -0.96 c-2.12 -1.28 -3.56 -3.6 -3.56 -6 c0 -1.28 0.32 -2.48 0.96 -3.56 c1.24 -2.16 3.6 -3.44 6 -3.44 c1.52 0 2.88 0.44 4.04 1.28 c0.2 0.12 0.44 0.28 0.72 0.56 l0.6 0.44 l2.68 -3.16 l-0.44 -0.44 c-0.28 -0.28 -0.64 -0.52 -1.08 -0.8 c-1.88 -1.44 -4.08 -2.16 -6.52 -2.16 c-3 0 -5.76 1.16 -7.96 3.28 c-2.12 2.24 -3.32 5 -3.32 8 s1.2 5.84 3.32 7.96 s4.96 3.32 7.96 3.32 c2.16 0 4.16 -0.6 6.04 -1.8 l-0.8 -1.2 c-1.64 1.08 -3.36 1.6 -5.24 1.6 c-2.6 0 -5.08 -1.04 -6.96 -2.92 s-2.88 -4.36 -2.88 -6.96 s1 -5.04 2.88 -6.92 c1.88 -1.92 4.36 -2.92 6.96 -2.92 c1.96 0 3.84 0.6 5.72 1.84 l0.32 0.28 l-0.88 1 c-0.12 -0.04 -0.2 -0.08 -0.28 -0.16 c-1.48 -1 -3.12 -1.52 -4.88 -1.52 c-1.56 0 -2.96 0.36 -4.2 1.08 c-2.52 1.48 -4.2 4.4 -4.2 7.32 c0 1.4 0.4 2.8 1.16 4.12 c1.56 2.68 4.4 4.32 7.24 4.32 c1.88 0 3.4 -0.56 5.68 -2 l2.24 3.32 c-2.92 1.92 -5.2 2.72 -7.92 2.72 c-2.24 0 -4.32 -0.56 -6.24 -1.68 c-3.88 -2.24 -6.28 -6.32 -6.28 -10.8 c0 -2.24 0.56 -4.32 1.68 -6.28 c2.24 -3.84 6.36 -6.24 10.84 -6.24 c3.16 0 6.16 1.16 8.44 3.28 l0.24 0.2 l0.32 0.32 l1 -1.04 l-0.56 -0.56 c-2.56 -2.28 -5.92 -3.6 -9.44 -3.6 c-2.52 0 -4.84 0.6 -6.96 1.84 c-4.24 2.44 -7 7.12 -7 12.08 c0 2.44 0.64 4.76 1.92 6.92 c2.52 4.32 7.04 7.04 12.04 7.04 c3.16 0 5.8 -1 9.36 -3.44 l0.56 -0.36 l-3.8 -5.72 z M26.49 37.52 l1.76 0 l1.4 -3.36 l10.44 0.04 l2.56 5.8 l7.36 -0.04 l-12.6 -27.96 l-2.56 0 l-12.52 27.96 l7.8 0 l1.36 -3.2 l7.96 0 l-0.6 -1.36 l-8.24 0 l-1.28 3.16 l-4.76 0 l11.08 -25.2 l0.96 0 l11.12 25.2 l-4.24 0 l-2.56 -5.72 l-12.4 0 z M31.25 30.48 l4.88 -11.64 l8.2 18.64 l1.64 0 l-9.84 -21.92 l-7.2 16.16 l11.6 0 l-4.4 -9.72 l-3.04 7.32 l1.56 0 l1.48 -3.64 l2.28 4.8 l-7.16 0 z M55.86 33.4 c1.96 0.88 3.68 1.32 5.12 1.32 c0.72 0 1.16 -0.04 1.36 -0.16 c0.92 -0.24 1.56 -0.76 1.96 -1.56 l0.04 -0.08 c0.2 -0.36 0.28 -0.8 0.28 -1.36 c0 -0.28 -0.08 -0.6 -0.24 -1 l-0.08 -0.16 c-0.52 -1.08 -1.68 -1.8 -3.8 -2.48 l-0.4 -0.12 l-0.12 -0.04 c-3.24 -0.96 -5.32 -2.48 -6.32 -4.6 c-0.4 -0.8 -0.6 -1.68 -0.6 -2.64 c0 -1 0.2 -1.96 0.6 -2.96 l0.08 -0.16 c0.92 -1.84 2.4 -3.04 4.36 -3.64 c1.4 -0.2 2.2 -0.32 2.4 -0.32 c2.72 0 5.88 1.12 9.44 3.32 l0.76 -1.24 c-3.88 -2.36 -7.24 -3.52 -10.16 -3.52 c-1.16 0 -2.12 0.12 -2.8 0.4 c-2.36 0.64 -4.12 2.08 -5.28 4.36 l-0.12 0.28 c-0.48 1.16 -0.72 2.32 -0.72 3.48 c0 1.24 0.24 2.32 0.72 3.28 c1.24 2.48 3.64 4.24 7.24 5.32 l0.48 0.16 c1.64 0.52 2.6 1.08 2.96 1.72 l0.04 0.08 c0.08 0.12 0.12 0.28 0.12 0.48 c0 0.36 -0.04 0.6 -0.16 0.8 c-0.28 0.64 -0.96 0.96 -2.04 0.96 c-1.72 0 -4.2 -0.88 -6.12 -2.12 l-0.6 -0.36 l-3.52 5.68 l0.6 0.36 c2.84 1.92 6.6 3.12 9.64 3.12 c1 0 1.92 -0.12 2.76 -0.36 c2.36 -0.68 4.12 -2.16 5.28 -4.4 l0.16 -0.28 c0.48 -1.24 0.72 -2.4 0.72 -3.48 c0 -0.96 -0.32 -2.16 -0.92 -3.64 c-1.08 -2.16 -3.36 -3.8 -6.92 -4.92 l-0.56 -0.16 c-1.12 -0.36 -1.88 -0.72 -2.24 -1 c-0.48 -0.4 -0.76 -0.68 -0.88 -0.84 l-0.08 -0.44 c0 -0.4 0.08 -0.76 0.28 -1.04 c0.32 -0.6 0.64 -0.76 1.92 -0.76 c1.72 0 4.2 0.88 6.12 2.12 l0.6 0.36 l2.16 -3.44 l-0.64 -0.36 c-2.44 -1.6 -5.76 -2.72 -8.2 -2.72 c-1.08 0 -1.76 0.08 -2.12 0.28 c-1.64 0.48 -2.88 1.52 -3.68 3.08 c-0.36 0.68 -0.52 1.48 -0.52 2.48 c0 0.76 0.16 1.48 0.48 2.16 c0.84 1.8 2.72 3.12 5.64 4 l0.52 0.16 l1.08 0.4 c0.6 0.24 1.24 0.56 1.96 0.96 c1.28 0.76 1.92 1.84 1.92 3.28 c0 0.8 -0.2 1.56 -0.56 2.24 c-0.84 1.48 -2.28 2.24 -4.28 2.24 c-1.36 0 -3.28 -0.52 -5.76 -1.52 l-0.68 1.16 l-0.04 0.08 c2.28 1.16 4.44 1.72 6.52 1.72 c1.16 0 2.24 -0.24 3.2 -0.72 c1.88 -0.92 3.04 -2.84 3.04 -5.24 c0 -3.8 -2.92 -4.92 -6 -6 l-0.52 -0.16 c-2.52 -0.76 -4.08 -1.8 -4.72 -3.2 c-0.24 -0.48 -0.36 -1 -0.36 -1.6 c0 -0.76 0.12 -1.36 0.4 -1.88 c0.64 -1.16 1.56 -1.92 2.76 -2.28 l1.6 -0.2 c2.12 0 4.44 0.72 6.96 2.12 l-0.64 1 c-2.6 -1.28 -4.68 -1.92 -6.2 -1.92 c-0.76 0 -1.2 0.04 -1.4 0.16 c-0.88 0.24 -1.52 0.76 -1.96 1.6 l-0.04 0.08 c-0.2 0.36 -0.28 0.84 -0.28 1.44 c0 0.44 0.08 0.76 0.2 0.96 c0.52 1.08 1.88 1.96 4.04 2.6 l0.52 0.16 l1 0.32 c0.12 0.04 0.76 0.32 1.92 0.88 c1.56 0.88 2.68 2 3.32 3.32 c0.4 0.8 0.6 1.68 0.6 2.64 c0 1.16 -0.2 2.16 -0.64 3 l-0.08 0.16 c-0.92 1.84 -2.4 3.04 -4.36 3.64 c-1.4 0.2 -2.2 0.32 -2.4 0.32 c-2.04 0 -4.68 -0.76 -7.12 -1.92 l-1.12 -0.6 l2 -3.24 z M74.78999999999999 37.52 l1.76 0 l1.4 -3.36 l10.44 0.04 l2.56 5.8 l7.36 -0.04 l-12.6 -27.96 l-2.56 0 l-12.52 27.96 l7.8 0 l1.36 -3.2 l7.96 0 l-0.6 -1.36 l-8.24 0 l-1.28 3.16 l-4.76 0 l11.08 -25.2 l0.96 0 l11.12 25.2 l-4.24 0 l-2.56 -5.72 l-12.4 0 z M79.55 30.48 l4.88 -11.64 l8.2 18.64 l1.64 0 l-9.84 -21.92 l-7.2 16.16 l11.6 0 l-4.4 -9.72 l-3.04 7.32 l1.56 0 l1.48 -3.64 l2.28 4.8 l-7.16 0 z M113.96999999999998 11.96 l1.48 0 l0 26.56 l3.96 0 l0 -9.64 l4.92 0 c1.8 0 3.28 -0.4 4.52 -1.24 c1.92 -1.16 2.92 -3.52 2.92 -6.6 c0 -4.96 -2.8 -7.6 -7.96 -7.6 l-5.72 0 l0 9.96 l5.12 0 c2.08 0 2.88 -0.64 2.88 -2.36 c0 -1.4 -0.68 -2.08 -2.08 -2.08 l-3.04 0 l0 3.24 l-1.48 0.04 l0 -4.68 l4.52 0 c2.2 0 3.44 1.28 3.44 3.48 c0 2.56 -1.4 3.84 -4.24 3.84 l-6.48 0 l0 -12.92 l7.08 0 c5.8 0 9.36 3.36 9.36 9.08 c0 5.92 -3.24 9.32 -8.84 9.32 l-3.44 0 l0 9.64 l-6.92 0 l0 -28.04 z M116.72999999999999 26.2 l6.72 0 c3.72 0 5.52 -1.6 5.52 -4.96 c0 -3.16 -1.72 -5 -4.48 -5 l-5 0 l0 -1.44 l5 0 c1.12 0 2.16 0.24 3.08 0.76 c1.88 1 2.84 3 2.84 5.68 c0 4.16 -2.32 6.36 -6.96 6.36 l-5.36 0 l0 10 l-1.36 0 l0 -11.4 z M137.29999999999998 37.52 l1.76 0 l1.4 -3.36 l10.44 0.04 l2.56 5.8 l7.36 -0.04 l-12.6 -27.96 l-2.56 0 l-12.52 27.96 l7.8 0 l1.36 -3.2 l7.96 0 l-0.6 -1.36 l-8.24 0 l-1.28 3.16 l-4.76 0 l11.08 -25.2 l0.96 0 l11.12 25.2 l-4.24 0 l-2.56 -5.72 l-12.4 0 z M142.05999999999997 30.48 l4.88 -11.64 l8.2 18.64 l1.64 0 l-9.84 -21.92 l-7.2 16.16 l11.6 0 l-4.4 -9.72 l-3.04 7.32 l1.56 0 l1.48 -3.64 l2.28 4.8 l-7.16 0 z M180.86999999999998 30.880000000000003 c-2.52 1.64 -3.76 2.12 -5.48 2.12 c-1.2 0 -2.32 -0.32 -3.4 -0.96 c-2.12 -1.28 -3.56 -3.6 -3.56 -6 c0 -1.28 0.32 -2.48 0.96 -3.56 c1.24 -2.16 3.6 -3.44 6 -3.44 c1.52 0 2.88 0.44 4.04 1.28 c0.2 0.12 0.44 0.28 0.72 0.56 l0.6 0.44 l2.68 -3.16 l-0.44 -0.44 c-0.28 -0.28 -0.64 -0.52 -1.08 -0.8 c-1.88 -1.44 -4.08 -2.16 -6.52 -2.16 c-3 0 -5.76 1.16 -7.96 3.28 c-2.12 2.24 -3.32 5 -3.32 8 s1.2 5.84 3.32 7.96 s4.96 3.32 7.96 3.32 c2.16 0 4.16 -0.6 6.04 -1.8 l-0.8 -1.2 c-1.64 1.08 -3.36 1.6 -5.24 1.6 c-2.6 0 -5.08 -1.04 -6.96 -2.92 s-2.88 -4.36 -2.88 -6.96 s1 -5.04 2.88 -6.92 c1.88 -1.92 4.36 -2.92 6.96 -2.92 c1.96 0 3.84 0.6 5.72 1.84 l0.32 0.28 l-0.88 1 c-0.12 -0.04 -0.2 -0.08 -0.28 -0.16 c-1.48 -1 -3.12 -1.52 -4.88 -1.52 c-1.56 0 -2.96 0.36 -4.2 1.08 c-2.52 1.48 -4.2 4.4 -4.2 7.32 c0 1.4 0.4 2.8 1.16 4.12 c1.56 2.68 4.4 4.32 7.24 4.32 c1.88 0 3.4 -0.56 5.68 -2 l2.24 3.32 c-2.92 1.92 -5.2 2.72 -7.92 2.72 c-2.24 0 -4.32 -0.56 -6.24 -1.68 c-3.88 -2.24 -6.28 -6.32 -6.28 -10.8 c0 -2.24 0.56 -4.32 1.68 -6.28 c2.24 -3.84 6.36 -6.24 10.84 -6.24 c3.16 0 6.16 1.16 8.44 3.28 l0.24 0.2 l0.32 0.32 l1 -1.04 l-0.56 -0.56 c-2.56 -2.28 -5.92 -3.6 -9.44 -3.6 c-2.52 0 -4.84 0.6 -6.96 1.84 c-4.24 2.44 -7 7.12 -7 12.08 c0 2.44 0.64 4.76 1.92 6.92 c2.52 4.32 7.04 7.04 12.04 7.04 c3.16 0 5.8 -1 9.36 -3.44 l0.56 -0.36 l-3.8 -5.72 z M184.2 12 l6.96 0 l0 9.24 l-1.48 0 l0 -7.76 l-4.04 0 l0 25.04 l4.04 0 l0 -7.72 l1.48 0 l0 9.2 l-6.96 0 l0 -28 z M186.96 14.64 l1.44 0 l0 7.84 l12.2 0 l0 -10.48 l1.4 0 l0 11.88 l-15.04 0 l0 -9.24 z M206.28 13.48 l-1.36 0 l0 10.52 l-1.44 0 l0 -12 l4.2 0 l0 28 l-1.4 0 l0 -26.52 z M200.6 29.52 l-12.2 0 l0 8.04 l-1.48 0 l0 -9.52 l15.08 0 l0 10.48 l1.48 0 l0 -11.8 l-16.56 0 l0 -1.4 l18 0 l0 14.68 l-4.32 0 l0 -10.48 z M212.36999999999998 37.52 l1.76 0 l1.4 -3.36 l10.44 0.04 l2.56 5.8 l7.36 -0.04 l-12.6 -27.96 l-2.56 0 l-12.52 27.96 l7.8 0 l1.36 -3.2 l7.96 0 l-0.6 -1.36 l-8.24 0 l-1.28 3.16 l-4.76 0 l11.08 -25.2 l0.96 0 l11.12 25.2 l-4.24 0 l-2.56 -5.72 l-12.4 0 z M217.12999999999997 30.48 l4.88 -11.64 l8.2 18.64 l1.64 0 l-9.84 -21.92 l-7.2 16.16 l11.6 0 l-4.4 -9.72 l-3.04 7.32 l1.56 0 l1.48 -3.64 l2.28 4.8 l-7.16 0 z M242.25999999999996 11.96 l11.6 21.8 l4.84 -8.96 l2.32 15.2 l1.44 0 l-3 -19.68 l-5.6 10.36 l-9.96 -18.72 l-1.64 0 z M255.01999999999998 22.72 l-1.88 3.48 l0.84 1.52 l2.64 -5 l3.52 -6.56 l0.12 -0.28 l1.32 -2.44 l0.96 0 l0.12 0.96 l3 19.52 l0.68 4.6 l-1.32 0 l-3.04 -19.8 l-0.36 -2.4 l-1.12 2.12 l3.2 20.96 l-0.04 0 l0.12 0.6 l4.24 0 l-4.24 -28.04 l-3.08 0 z M252.57999999999998 34.12 l-11.48 -21.64 l-0.24 -0.4 l-4.24 27.92 l7 0 l1.28 -8.28 l-0.84 -1.56 l-0.32 -0.6 l-1.36 8.96 l-4.08 0 l3.36 -21.92 l12.24 23.04 l4.36 -8.28 l-0.32 -2.12 l-0.04 -0.28 l-4 7.6 z M243.09999999999997 25.240000000000002 l7.84 14.76 l1.64 0 l-10.24 -19.24 l-2.6 16.72 l1.44 0 z M272.51 37.52 l1.76 0 l1.4 -3.36 l10.44 0.04 l2.56 5.8 l7.36 -0.04 l-12.6 -27.96 l-2.56 0 l-12.52 27.96 l7.8 0 l1.36 -3.2 l7.96 0 l-0.6 -1.36 l-8.24 0 l-1.28 3.16 l-4.76 0 l11.08 -25.2 l0.96 0 l11.12 25.2 l-4.24 0 l-2.56 -5.72 l-12.4 0 z M277.27 30.48 l4.88 -11.64 l8.2 18.64 l1.64 0 l-9.84 -21.92 l-7.2 16.16 l11.6 0 l-4.4 -9.72 l-3.04 7.32 l1.56 0 l1.48 -3.64 l2.28 4.8 l-7.16 0 z M302.4 11.96 l11.6 21.8 l4.84 -8.96 l2.32 15.2 l1.44 0 l-3 -19.68 l-5.6 10.36 l-9.96 -18.72 l-1.64 0 z M315.15999999999997 22.72 l-1.88 3.48 l0.84 1.52 l2.64 -5 l3.52 -6.56 l0.12 -0.28 l1.32 -2.44 l0.96 0 l0.12 0.96 l3 19.52 l0.68 4.6 l-1.32 0 l-3.04 -19.8 l-0.36 -2.4 l-1.12 2.12 l3.2 20.96 l-0.04 0 l0.12 0.6 l4.24 0 l-4.24 -28.04 l-3.08 0 z M312.71999999999997 34.12 l-11.48 -21.64 l-0.24 -0.4 l-4.24 27.92 l7 0 l1.28 -8.28 l-0.84 -1.56 l-0.32 -0.6 l-1.36 8.96 l-4.08 0 l3.36 -21.92 l12.24 23.04 l4.36 -8.28 l-0.32 -2.12 l-0.04 -0.28 l-4 7.6 z M303.24 25.240000000000002 l7.84 14.76 l1.64 0 l-10.24 -19.24 l-2.6 16.72 l1.44 0 z M332.65000000000003 37.52 l1.76 0 l1.4 -3.36 l10.44 0.04 l2.56 5.8 l7.36 -0.04 l-12.6 -27.96 l-2.56 0 l-12.52 27.96 l7.8 0 l1.36 -3.2 l7.96 0 l-0.6 -1.36 l-8.24 0 l-1.28 3.16 l-4.76 0 l11.08 -25.2 l0.96 0 l11.12 25.2 l-4.24 0 l-2.56 -5.72 l-12.4 0 z M337.41 30.48 l4.88 -11.64 l8.2 18.64 l1.64 0 l-9.84 -21.92 l-7.2 16.16 l11.6 0 l-4.4 -9.72 l-3.04 7.32 l1.56 0 l1.48 -3.64 l2.28 4.8 l-7.16 0 z"></path></g><g id="SvgjsG52067" featureKey="sloganFeature-0" transform="matrix(3.2100889068295437,0,0,3.2100889068295437,58.00000153068967,247.72971825251219)" fill="url(#SvgjsLinearGradient52084)"><path d="M7.08 5.720000000000001 l-2.68 8.68 l0 5.6 l-1.94 0 l0 -5.62 l-2.46 -8.66 l2 0 l1.46 5.14 l1.6 -5.14 l2.02 0 z M10.780000000000001 20.02 c-1.5 0 -2.7 -1.22 -2.7 -2.7 l0 -8.98 c0 -1.48 1.2 -2.68 2.7 -2.68 c1.48 0 2.68 1.2 2.68 2.68 l0 8.98 c0 1.48 -1.2 2.7 -2.68 2.7 z M10.780000000000001 7.5600000000000005 c-0.44 0 -0.78 0.36 -0.78 0.78 l0 8.98 c0 0.44 0.34 0.78 0.78 0.78 c0.42 0 0.78 -0.34 0.78 -0.78 l0 -8.98 c0 -0.42 -0.36 -0.78 -0.78 -0.78 z M17.42 20.16 l-0.44 0 c-1.4 0 -2.52 -1.12 -2.52 -2.52 l0 -9.64 c0 -1.4 1.12 -2.54 2.52 -2.54 l0.44 0 c1.4 0 2.52 1.14 2.52 2.54 l0 1.02 l-1.96 0 l0 -1.02 c0 -0.34 -0.24 -0.58 -0.56 -0.58 l-0.44 0 c-0.3 0 -0.58 0.24 -0.58 0.58 l0 9.64 c0 0.3 0.28 0.58 0.58 0.58 l0.44 0 c0.32 0 0.56 -0.28 0.56 -0.58 l0 -5.2 l-1.12 0 l0 -1.94 l3.08 0 l0 7.14 c0 1.4 -1.12 2.52 -2.52 2.52 z M26.14 20 l-0.72 -4.94 l-2.02 0 l-0.66 4.94 l-1.92 0 l2.16 -14.3 l2.58 0 l2.5 14.3 l-1.92 0 z M23.66 13.16 l1.48 0 l-0.76 -5.2 z M35.800000000000004 20.12 c-1.52 0 -2.74 -1.24 -2.74 -2.74 l0 -2.18 l1.94 0 l0 2.18 c0 0.44 0.36 0.8 0.8 0.8 s0.78 -0.36 0.78 -0.8 l0 -1.9 l-3.52 -4.86 l0 -2.48 c0 -1.52 1.22 -2.76 2.74 -2.76 c1.5 0 2.72 1.24 2.72 2.76 l0 2.16 l-1.94 0 l0 -2.16 c0 -0.46 -0.34 -0.8 -0.78 -0.8 s-0.8 0.34 -0.8 0.8 l0 1.82 l3.52 4.86 l0 2.56 c0 1.5 -1.22 2.74 -2.72 2.74 z M42.2 19.96 c-1.48 0 -2.68 -1.2 -2.68 -2.68 l0 -8.88 c0 -1.48 1.2 -2.68 2.68 -2.68 s2.68 1.2 2.68 2.68 l0 0.8 l-1.9 0 l0 -0.8 c0 -0.42 -0.36 -0.78 -0.78 -0.78 s-0.78 0.36 -0.78 0.78 l0 8.88 c0 0.42 0.36 0.78 0.78 0.78 s0.78 -0.36 0.78 -0.78 l0 -1.28 l1.9 0 l0 1.28 c0 1.48 -1.2 2.68 -2.68 2.68 z M49.480000000000004 5.720000000000001 l1.9 0 l0 14.26 l-1.9 0 l0 -7.54 l-1.7 0 l0 7.54 l-1.9 0 l0 -14.26 l1.9 0 l0 4.84 l1.7 0 l0 -4.84 z M55.080000000000005 20.02 c-1.5 0 -2.7 -1.22 -2.7 -2.7 l0 -8.98 c0 -1.48 1.2 -2.68 2.7 -2.68 c1.48 0 2.68 1.2 2.68 2.68 l0 8.98 c0 1.48 -1.2 2.7 -2.68 2.7 z M55.080000000000005 7.5600000000000005 c-0.44 0 -0.78 0.36 -0.78 0.78 l0 8.98 c0 0.44 0.34 0.78 0.78 0.78 c0.42 0 0.78 -0.34 0.78 -0.78 l0 -8.98 c0 -0.42 -0.36 -0.78 -0.78 -0.78 z M61.46000000000001 20.02 c-1.5 0 -2.7 -1.22 -2.7 -2.7 l0 -8.98 c0 -1.48 1.2 -2.68 2.7 -2.68 c1.48 0 2.68 1.2 2.68 2.68 l0 8.98 c0 1.48 -1.2 2.7 -2.68 2.7 z M61.46000000000001 7.5600000000000005 c-0.44 0 -0.78 0.36 -0.78 0.78 l0 8.98 c0 0.44 0.34 0.78 0.78 0.78 c0.42 0 0.78 -0.34 0.78 -0.78 l0 -8.98 c0 -0.42 -0.36 -0.78 -0.78 -0.78 z M67.02 18.12 l2.76 0 l0 1.88 l-4.64 0 l0 -14.36 l1.88 0 l0 12.48 z"></path></g>
			</g>
		</svg>
	